Inverse Dynamics Generalized Forces																																												
version=1																																												
nRows=21																																												
nColumns=45																																												
inDegrees=no																																												
endheader																																												
time	pelvis_tilt_moment	pelvis_list_moment	pelvis_rotation_moment	pelvis_tx_force	pelvis_ty_force	pelvis_tz_force	hip_flexion_r_moment	hip_adduction_r_moment	hip_rotation_r_moment	hip_flexion_l_moment	hip_adduction_l_moment	hip_rotation_l_moment	lumbar_extension_moment	lumbar_bending_moment	lumbar_rotation_moment	knee_angle_r_moment	knee_adduction_r_moment	knee_angle_r_beta_force	knee_angle_l_moment	knee_adduction_l_moment	knee_angle_l_beta_force	thoracic_extension_moment	thoracic_bending_moment	thoracic_rotation_moment	ankle_angle_r_moment	ankle_angle_l_moment	arm_flex_r_moment	arm_add_r_moment	arm_rot_r_moment	arm_flex_l_moment	arm_add_l_moment	arm_rot_l_moment	subtalar_angle_r_moment	subtalar_angle_l_moment	elbow_flex_r_moment	elbow_flex_l_moment	mtp_angle_r_moment	mtp_angle_l_moment	pro_sup_r_moment	pro_sup_l_moment	wrist_flex_r_moment	wrist_dev_r_moment	wrist_flex_l_moment	wrist_dev_l_moment
0	-0.073199389	0.055163803	0.095861498	-0.341030554	-1.258917508	-0.853470574	-57.47975541	3.667864674	5.598403102	43.4905254	-47.89631744	-6.337628807	23.70467069	6.285829356	5.095078186	37.36071747	-4.222190082	-0.015951126	14.3274173	-30.54816286	-0.052397441	20.86509286	3.92184542	3.947078702	0.967731881	-102.0087429	-2.656602709	-0.101341476	0.205726322	-6.346351532	-0.18897239	1.657109817	-0.222711174	9.306267171	-0.029603568	-1.245495102	0.042296499	8.695017758	0.017435858	0.069547514	0.068802921	0.041980557	0.184462	0.321902691
0.010642857	-0.111870644	0.062489361	0.079159757	-0.812338749	0.496775325	0.080560158	-57.44400551	3.994200577	5.709864258	44.49042795	-44.97104764	-5.413325562	21.71927545	4.667726455	5.543009301	36.00619867	-4.122947725	-0.014438595	14.08889518	-30.93518863	-0.05092679	18.48980843	2.556836931	4.506691812	1.084054472	-96.91143265	-2.694141131	-0.381911276	0.135790579	-7.309068743	-0.25035526	1.705628524	-0.082721096	7.579509445	-0.086070835	-1.767254209	0.036575019	8.833827372	0.013853499	0.07920947	0.051218295	0.044216253	0.171757975	0.38483853
0.021285714	-0.091089462	-0.050650902	0.071086048	-0.595582211	-0.078845101	-0.245528629	-55.73052382	3.223360561	5.775498026	45.03698267	-43.44390999	-4.708344855	19.72275517	3.714286742	6.147099434	32.95398439	-4.20934027	-0.012753323	13.31807539	-31.31862346	-0.049861177	17.29038817	0.929291554	5.031581817	2.03955272	-96.00657908	-2.35070248	-1.062336186	-0.016986307	-8.210649208	-0.031743278	1.886621562	0.097687163	6.601134939	-0.011636526	-2.152696712	0.0206346	9.672577204	0.002837717	0.090235129	0.021031808	0.028914888	0.179922835	0.438331956
0.031928571	-0.087656747	-0.084104057	0.020536778	-0.622132708	-1.000640527	-0.170194509	-51.95241267	2.165884017	5.444181367	44.41447557	-42.30683335	-4.086590318	17.62290549	3.226115084	6.775628936	29.18801471	-4.6600529	-0.013674758	12.43421575	-31.40797413	-0.048538233	17.18853738	-0.325888403	5.563937461	2.722818646	-96.33481549	-0.947974007	-1.671722361	-0.159494567	-7.982431662	0.139853579	1.849296665	0.085690103	6.032715094	0.428744833	-2.094109738	-0.027472018	10.74991443	-0.014239433	0.086278185	0.001330689	-0.029363228	0.174436223	0.428469431
0.042571429	-0.107500122	-0.014545662	-0.054660384	-0.949209997	-1.272104271	0.538918872	-46.7514897	0.839567919	4.855500044	42.559917	-41.18640977	-3.472910568	15.6514391	2.858710255	7.25971807	24.69453208	-5.466149159	-0.017761935	11.10776386	-31.12178132	-0.04684922	17.82521594	-0.906393717	6.062479736	2.754076961	-96.30055603	1.313931558	-2.000635345	-0.251876214	-6.558215808	0.043499911	1.501838158	0.000175688	5.674654434	1.182349974	-1.602896235	-0.081565882	12.04155235	-0.034245587	0.065035885	-0.001101543	-0.123242484	0.144300166	0.353212928
0.053214286	-0.097004188	0.034002336	-0.084231882	-0.904115369	-0.913205457	0.898588328	-41.3922095	-1.433032909	4.514345209	39.88827623	-40.33148933	-2.861229419	14.27063169	2.232179038	7.426956082	18.56655642	-6.488584467	-0.023796226	8.417705785	-30.54583701	-0.045152797	18.73805263	-0.811477886	6.42209935	2.411876172	-95.79513762	3.598567098	-2.088129516	-0.304725212	-4.648759281	-0.420907742	0.970124934	0.225135889	5.505377162	1.987345932	-0.926577078	-0.081216486	13.91251554	-0.053473854	0.035366841	0.006432376	-0.221799979	0.099154816	0.250150022
0.063857143	-0.037119845	-0.002068889	-0.036282931	-0.232784407	-0.130010051	0.40654243	-36.85610515	-5.01592965	4.753346605	36.89790544	-39.75839989	-2.229384664	13.64719739	1.190278211	7.226942277	10.59623754	-7.693961449	-0.030469478	3.952956645	-29.68683537	-0.043769637	19.47255635	-0.209141412	6.586123138	1.97206889	-94.45618919	5.268550319	-2.004789344	-0.328913077	-2.849201539	-1.214317514	0.391003603	0.932406456	5.468230857	2.630417129	-0.266121775	-0.007716861	16.30978465	-0.068630993	0.005530659	0.017177306	-0.299893245	0.050635061	0.149830432
0.0745	0.022936223	-0.06538486	0.045814082	0.491737297	0.555543606	-0.474692711	-33.56073828	-9.648123748	5.56228212	34.22781871	-39.01569064	-1.521847736	13.37490219	0.004940043	6.842252921	1.944437977	-9.255523216	-0.036371365	-1.701581976	-28.39406094	-0.04292986	19.59326595	0.422233528	6.592777848	1.679929628	-91.37972486	6.090971452	-1.871770335	-0.333891811	-1.504023624	-2.036785176	-0.086158782	1.878707838	5.432746498	2.998915464	0.275459341	0.076692612	18.36751478	-0.077235346	-0.017787373	0.025967329	-0.344320685	0.013385184	0.067842172
0.085142857	0.027237266	-0.085931549	0.110713774	0.614001374	0.59579419	-1.179505264	-31.85234959	-15.0038038	6.893661848	32.52183071	-37.60463838	-0.681270717	12.98937024	-1.008086824	6.480239011	-6.09169525	-11.37146158	-0.040093639	-7.845145547	-26.50020023	-0.042847888	18.67542584	0.573135163	6.491039349	1.770508916	-85.61183894	5.883920927	-1.814956893	-0.328959864	-0.922168518	-2.562346655	-0.313029863	2.776825191	5.261507487	2.993749959	0.608348402	0.101767947	19.13923051	-0.076950034	-0.028206933	0.027871602	-0.343494515	0.002141809	0.017761531
0.095785714	-0.032688366	-0.041048096	0.1311453	-0.000704554	-0.075613801	-1.407358281	-31.68842917	-21.02558133	8.762978804	31.88238162	-35.2881549	0.254724992	12.3348237	-1.745692774	6.278434461	-13.08050401	-14.32424124	-0.040894933	-13.58641099	-23.8920365	-0.043466821	16.71528602	-0.080714525	6.333758941	2.145338139	-76.73817134	4.736913517	-1.913189821	-0.323713213	-1.051100303	-2.627924066	-0.261321458	3.474165529	4.883554003	2.625842865	0.749784792	0.051224858	18.20735917	-0.0680689	-0.025636688	0.020730743	-0.29915688	0.019549621	-0.003028609
0.106428571	-0.097221364	0.023981672	0.114381165	-0.739914778	-0.834434177	-1.238057525	-32.46866834	-28.04121446	11.27609705	31.63512039	-32.2045589	1.112251256	11.69827666	-2.409873321	6.274196131	-19.83217699	-18.51724592	-0.038990745	-17.76063229	-20.53397366	-0.044340459	14.31317637	-1.597810886	6.179348579	2.227398712	-65.11852899	3.128917234	-2.177809401	-0.328174744	-1.319615039	-2.304156786	-0.074990784	4.011298045	4.323281738	2.063968933	0.870619005	-0.013796871	15.91322429	-0.054660483	-0.019009053	0.006362	-0.232176373	0.050903187	-0.020380482
0.117071429	-0.101811315	0.058840249	0.070369144	-0.936540729	-1.006316185	-0.780901927	-33.55025246	-36.40444218	14.54374396	31.04868524	-28.52097395	1.707572598	11.39873661	-3.224381144	6.496708141	-27.24820582	-24.35892683	-0.034673727	-19.18869988	-16.39818754	-0.044992039	12.11339386	-4.013467206	6.086446339	1.403099847	-51.17623483	1.567229243	-2.61451216	-0.352325932	-1.119359847	-1.680056756	0.089214663	4.444020279	3.612459196	1.488518167	1.15260606	-0.02573902	12.65732434	-0.04107164	-0.017912365	-0.013106688	-0.164824973	0.080205954	-0.061798779
0.127714286	-0.026511181	0.042468097	0.009830821	-0.343849029	-0.356943693	-0.158677217	-34.37135333	-45.95906172	18.3908519	29.79869381	-24.37670451	1.949040306	11.45528883	-4.16750596	6.917074188	-35.60100165	-31.68130819	-0.02866867	-17.603318	-11.69586495	-0.044880559	10.39420384	-7.006926947	6.086255065	-0.885823199	-35.83173692	0.320924072	-3.171413495	-0.396122428	-0.23734853	-0.886517431	0.144743532	4.86863609	2.783360394	1.001237039	1.647243062	0.141578318	8.911213419	-0.029845095	-0.026350971	-0.035092433	-0.109306983	0.098159674	-0.135496022
0.138357143	0.059437298	0.01230985	-0.05496495	0.444352545	0.468107379	0.478863135	-34.53208399	-55.52919949	22.07088117	28.37455818	-19.85542485	1.929142592	11.2872948	-4.726711187	7.390260743	-43.90507455	-39.16379758	-0.022564466	-14.56045202	-7.116114703	-0.043336567	8.701954023	-9.545439591	6.155118106	-5.087006016	-20.99952118	-0.817274382	-3.681490142	-0.439472297	0.748831232	-0.13817785	0.145408633	5.462446	1.869269561	0.546616144	2.145564013	0.731554773	5.288525354	-0.019916022	-0.037163489	-0.056102649	-0.057695365	0.108860024	-0.211108208
0.149	0.076412514	0.0126405	-0.11155137	0.736054611	0.720532938	0.978769137	-33.65276783	-63.82000079	24.77086384	27.36103719	-15.03506228	1.762042803	10.2448054	-4.332400407	7.757690373	-51.02683129	-45.35108199	-0.018050482	-11.83012304	-3.403569739	-0.039678751	6.497959752	-10.51387919	6.262874904	-11.6321207	-8.709417181	-2.110184304	-3.964280943	-0.459912689	1.169090257	0.340747735	0.161550114	6.411804138	0.903803807	0.050813281	2.4081615	2.000388041	2.418658147	-0.009795085	-0.041879724	-0.072532589	0.000285053	0.117981133	-0.253760739
0.159642857	-0.001069813	0.057212765	-0.144271118	0.261934074	0.110879264	1.191068434	-31.57057685	-70.08393768	26.04334067	26.99604081	-10.19530403	1.506801214	8.154166433	-2.727485997	7.924873163	-56.20179527	-49.35407205	-0.01627177	-10.50623848	-0.99025715	-0.034017783	3.722148206	-9.341932085	6.385088359	-20.30626106	-0.3081307	-3.555552511	-3.900453938	-0.438424141	0.719099239	0.41645382	0.222599493	7.767744229	-0.030292619	-0.471790502	2.32404281	3.938051476	0.666453635	0.000894156	-0.03665021	-0.079877468	0.063899855	0.127609685	-0.247137216
0.170285714	-0.075430891	0.090397208	-0.130214288	-0.286496534	-0.607264809	0.972557336	-28.61561563	-74.81764605	26.27171394	26.72903427	-6.074470798	1.097219727	5.924420593	-0.365264353	7.943000679	-59.50455293	-51.57079793	-0.017136049	-10.14578783	0.40240058	-0.028264656	1.402410187	-6.6977327	6.510331735	-29.42474192	4.410485557	-4.548574903	-3.509633923	-0.363814577	-0.074038626	0.160648893	0.264996227	9.2736944	-0.738601366	-0.806268152	2.074123008	5.92934662	-0.204626121	0.009998347	-0.028129153	-0.071586558	0.107388025	0.131677512	-0.21710709
0.180928571	-0.039941329	0.05074968	-0.048869545	-0.13031603	-0.578930124	0.207760624	-25.19034523	-78.66583167	25.93831805	25.92756738	-3.438675294	0.458319698	4.577868742	2.204652704	7.882694	-61.14756692	-52.56894362	-0.020351041	-10.10756554	1.145774644	-0.024483368	0.667522543	-3.410000658	6.630732972	-37.17026122	5.899747883	-4.44107667	-2.839406831	-0.229018591	-0.58893052	-0.328214	0.215273439	10.6371173	-1.024549836	-0.724955288	1.872405977	7.299132723	-0.511562499	0.015041045	-0.024161672	-0.04174872	0.103226847	0.123240915	-0.194353506
0.191571429	0.049001736	-0.044813604	0.049681768	0.567109756	0.162720227	-0.662674109	-21.7848932	-81.77716876	25.19527234	24.52091831	-2.315102044	-0.307771921	4.381454467	4.471540214	7.799909613	-61.79789262	-52.74492842	-0.025022976	-10.04587265	1.498618023	-0.02274884	1.61899518	-0.087594142	6.774876308	-43.18957077	5.288268737	-3.413342629	-2.119072169	-0.090169105	-0.632398338	-0.986168198	0.061132839	11.70146315	-0.967236279	-0.311159725	1.782235187	7.864282477	-0.515731399	0.014097405	-0.027177485	-0.003598014	0.05912682	0.100579052	-0.188445962
0.202214286	-0.001665716	-0.105907665	0.056430108	0.786248991	0.734718074	-0.735909002	-18.91726939	-83.86063782	23.9080051	22.96312665	-2.045706272	-0.932117992	4.859488601	5.975017752	7.710066044	-62.48803981	-52.34355214	-0.029712722	-9.925522025	1.609308079	-0.02128663	3.378256228	2.850349156	6.973364711	-48.50350423	4.308893012	-2.405367718	-1.731938126	-0.056067281	-0.409770485	-1.771030872	-0.150436069	12.44773463	-0.895769556	0.068612379	1.728470926	7.905139589	-0.424584633	0.006149658	-0.034477482	0.013152404	0.015051905	0.06729941	-0.189408532
0.212857143	0.012734211	-0.053668792	0.042789947	0.320209913	0.023709104	-0.590175082	-15.80439447	-85.25634641	22.50261214	21.58008938	-2.218279001	-1.151774462	4.813416981	6.599303316	7.020650609	-62.73620501	-51.81848412	-0.033511124	-10.44531655	1.522888824	-0.018927163	4.779185688	4.60175554	6.517969068	-53.98014023	3.907918216	-1.853730513	-1.651067495	-0.072992975	-0.01885861	-2.391571309	-0.333275207	13.07289412	-0.905615839	0.282395044	1.715050194	7.685158203	-0.404003858	-0.000768803	-0.042648024	0.015710837	-0.011673989	0.036623902	-0.195147505
